<svg width="257" height="299" viewBox="0 0 257 299" fill="none" xmlns="http://www.w3.org/2000/svg">
<rect width="257" height="299" fill=""/>
<circle cx="128" cy="99" r="50" fill="#C4C4C4"/>
<path d="M128 149C119.777 149 111.682 146.972 104.43 143.096C97.1785 139.22 90.9947 133.615 86.4265 126.779C81.8583 119.942 79.0467 112.084 78.2408 103.901C77.4348 95.7179 78.6594 87.4625 81.806 79.8658C84.9527 72.2692 89.9242 65.5658 96.2803 60.3495C102.636 55.1331 110.181 51.5649 118.245 49.9607C126.31 48.3566 134.646 48.7661 142.514 51.153C150.383 53.5399 157.541 57.8304 163.355 63.6447L128 99L128 149Z" stroke="#4A4A3B" stroke-width="3"/>
<circle cx="128" cy="199" r="50" fill="#C4C4C4"/>
<path d="M128 149C136.223 149 144.318 151.028 151.57 154.904C158.821 158.78 165.005 164.385 169.573 171.221C174.142 178.058 176.953 185.916 177.759 194.099C178.565 202.282 177.341 210.537 174.194 218.134C171.047 225.731 166.076 232.434 159.72 237.65C153.364 242.867 145.819 246.435 137.755 248.039C129.69 249.643 121.354 249.234 113.486 246.847C105.617 244.46 98.459 240.17 92.6448 234.355L128 199L128 149Z" stroke="#4A4A3B" stroke-width="3"/>
<rect x="90.7071" y="120.397" width="83" height="23" rx="5.5" transform="rotate(-45 90.7071 120.397)" fill="#F2C94C" stroke="black"/>
<rect x="106.971" y="161.707" width="83" height="23" rx="5.5" transform="rotate(45 106.971 161.707)" fill="#F2C94C" stroke="black"/>
<circle cx="149.5" cy="77.5" r="7.5" fill="#655454"/>
<circle cx="149.5" cy="220.5" r="7.5" fill="#655454"/>
</svg>
